# xmcd
#
# Track frame offsets: 
#        182
#        24747
#        44792
#        68500
#        84727
#        102690
#        122232
#        143197
#        162370
#        178552
#        194270
#
# Disc length: 2921 seconds
#
# Revision: 0
# Processed by: cddbd v1.5.2PL0 Copyright (c) Steve Scherf et al.
# Submitted via: ExactAudioCopy v1.3
#
DISCID=a10b670b
DTITLE=Van Wilks - Van Wilks - Soul of a Man
DYEAR=1995
DGENRE=Texas Blues
TTITLE0=Soul of a Man
TTITLE1=Bleedin' For You
TTITLE2=Another Man's Shadow
TTITLE3=Can't Go On Like This
TTITLE4=Temporary Love Affair
TTITLE5=Sheri Says Stop
TTITLE6=Boystown
TTITLE7=The Spank
TTITLE8=Goin' To See My Baby
TTITLE9=She's Drivin' The Devil's Car
TTITLE10=Fever In The Desert
EXTD=
EXTT0=
EXTT1=
EXTT2=
EXTT3=
EXTT4=
EXTT5=
EXTT6=
EXTT7=
EXTT8=
EXTT9=
EXTT10=
PLAYORDER=
